<svg xmlns="http://www.w3.org/2000/svg" width="212.519" height="121.508" viewBox="0 0 212.519 121.508">
  <g id="undraw_our_neighborhood_ya1h_1_" data-name="undraw_our_neighborhood_ya1h (1)" transform="translate(0 22.894)">
    <path id="Path_3385" data-name="Path 3385" d="M609.922,425.245h-80.99V377.72l-.372-.239,13.146-12.8a35.916,35.916,0,0,1,24.84-10.23l24.167-.221.035.041,19.23,22.877-.057.633Z" transform="translate(-438.663 -326.855)" fill="#f2f2f2"/>
    <rect id="Rectangle_2542" data-name="Rectangle 2542" width="48.438" height="0.458" transform="translate(105.522 36.337)" fill="#fff"/>
    <rect id="Rectangle_2543" data-name="Rectangle 2543" width="48.438" height="0.458" transform="translate(100.712 41.147)" fill="#fff"/>
    <rect id="Rectangle_371" data-name="Rectangle 371" width="8.805" height="7.782" transform="translate(168.502 72.639)" fill="#fff"/>
    <rect id="Rectangle_372" data-name="Rectangle 372" width="8.805" height="7.659" transform="translate(168.502 59.169)" fill="#fff"/>
    <rect id="Rectangle_2544" data-name="Rectangle 2544" width="7.895" height="27.326" transform="translate(158.087 28.14)" fill="#f2f2f2"/>
    <path id="Path_3386" data-name="Path 3386" d="M737.891,425.2H694.549V393.7a30.644,30.644,0,0,1,7.323-19.869l16.778-19.67,19.241,22.906Z" transform="translate(-566.633 -326.809)" fill="#e6e6e6"/>
    <rect id="Rectangle_374" data-name="Rectangle 374" width="8.805" height="7.782" transform="translate(148.265 74.704)" fill="#fff"/>
    <rect id="Rectangle_375" data-name="Rectangle 375" width="8.805" height="7.659" transform="translate(148.265 61.234)" fill="#fff"/>
    <rect id="Rectangle_378" data-name="Rectangle 378" width="8.805" height="7.782" transform="translate(106.208 72.639)" fill="#fff"/>
    <g id="Group_11078" data-name="Group 11078" transform="translate(-1830.803 -403.741)">
      <circle id="Ellipse_34" data-name="Ellipse 34" cx="14.864" cy="14.864" r="14.864" transform="translate(1932.124 472.187)" fill="#f4b53e"/>
      <path id="Path_3408" data-name="Path 3408" d="M409.956,400.584H391.345l-11.236-54.963A20.646,20.646,0,1,1,421.2,345.6Z" transform="translate(1546.338 57.938)" fill="#f4b53e"/>
    </g>
    <rect id="Rectangle_379" data-name="Rectangle 379" width="8.805" height="7.659" transform="translate(106.208 59.169)" fill="#fff"/>
    <rect id="Rectangle_2545" data-name="Rectangle 2545" width="9.581" height="33.167" transform="translate(93.254 13.149)" fill="#f2f2f2"/>
    <path id="Path_3387" data-name="Path 3387" d="M280.73,374.315H182.477v-57.67l-.437-.281.1-.1,17.946-17.48a36.241,36.241,0,0,1,25.066-10.324l32.272-.295.035.041L280.8,315.964l-.067.759Z" transform="translate(-171.515 -275.926)" fill="#f2f2f2"/>
    <path id="Path_3388" data-name="Path 3388" d="M436,374.3H383.444V331.957a25.913,25.913,0,0,1,6.192-16.8l23.035-27.006L436,315.922Z" transform="translate(-326.786 -275.914)" fill="#e6e6e6"/>
    <rect id="Rectangle_381" data-name="Rectangle 381" width="8.499" height="7.512" transform="translate(83.367 69.666)" fill="#fff"/>
    <rect id="Rectangle_381-2" data-name="Rectangle 381" width="8.499" height="7.512" transform="translate(83.367 56.61)" fill="#fff"/>
    <rect id="Rectangle_385" data-name="Rectangle 385" width="10.687" height="9.446" transform="translate(30.284 67.16)" fill="#fff"/>
    <rect id="Rectangle_386" data-name="Rectangle 386" width="10.687" height="9.296" transform="translate(30.284 50.81)" fill="#fff"/>
    <rect id="Rectangle_387" data-name="Rectangle 387" width="212.519" height="0.523" transform="translate(0 98.041)" fill="#3f3d56"/>
    <ellipse id="Ellipse_519" data-name="Ellipse 519" cx="7.616" cy="15.541" rx="7.616" ry="15.541" transform="translate(24.282 57.335)" fill="#1a776c"/>
    <path id="Path_2702" data-name="Path 2702" d="M273.837,540.358c-3.051-18.3-.031-36.538,0-36.72l.593.1c-.031.181-3.033,18.321,0,36.521Z" transform="translate(-241.235 -442.045)" fill="#3f3d56"/>
    <rect id="Rectangle_388" data-name="Rectangle 388" width="7.811" height="0.602" transform="translate(31.716 73.217) rotate(-28.142)" fill="#3f3d56"/>
    <rect id="Rectangle_389" data-name="Rectangle 389" width="0.602" height="7.811" transform="translate(24.448 71.908) rotate(-61.842)" fill="#3f3d56"/>
    <ellipse id="Ellipse_520" data-name="Ellipse 520" cx="10.992" cy="22.428" rx="10.992" ry="22.428" transform="translate(2.464 39.511)" fill="#209587"/>
    <path id="Path_2703" data-name="Path 2703" d="M193.569,487.137c-4.4-26.378-.044-52.66,0-52.922l.438.074c-.044.262-4.384,26.473,0,52.775Z" transform="translate(-178.889 -388.523)" fill="#3f3d56"/>
    <rect id="Rectangle_390" data-name="Rectangle 390" width="11.272" height="0.444" transform="translate(13.293 62.618) rotate(-28.142)" fill="#3f3d56"/>
    <rect id="Rectangle_391" data-name="Rectangle 391" width="0.444" height="11.272" transform="translate(2.803 60.358) rotate(-61.842)" fill="#3f3d56"/>
    <path id="Path_2708" data-name="Path 2708" d="M785.793,301.489l2.409-1.927a2.551,2.551,0,0,0-2.955,1.622,4.1,4.1,0,0,0-3.054.189l4.821,1.75a3.647,3.647,0,0,0-1.22-1.634Z" transform="translate(-634.202 -284.692)" fill="#3f3d56"/>
    <path id="Path_2709" data-name="Path 2709" d="M595.7,236.688l2.409-1.927a2.551,2.551,0,0,0-2.955,1.622,4.105,4.105,0,0,0-3.054.189l4.821,1.75A3.648,3.648,0,0,0,595.7,236.688Z" transform="translate(-487.649 -234.734)" fill="#3f3d56"/>
    <path id="Path_2710" data-name="Path 2710" d="M860.459,252.354l2.409-1.927a2.552,2.552,0,0,0-2.955,1.622,4.105,4.105,0,0,0-3.054.189l4.821,1.75a3.648,3.648,0,0,0-1.22-1.634Z" transform="translate(-691.766 -246.812)" fill="#3f3d56"/>
    <path id="Path_2712" data-name="Path 2712" d="M397.221,647.787a3.644,3.644,0,0,0-1.825.49,3.921,3.921,0,0,0-6.551,2.913h12.027a3.662,3.662,0,0,0-3.651-3.4Z" transform="translate(-330.951 -552.774)" fill="#3f3d56"/>
    <path id="Path_2713" data-name="Path 2713" d="M670.329,647.787a3.644,3.644,0,0,0-1.825.49,3.921,3.921,0,0,0-6.551,2.913H673.98A3.662,3.662,0,0,0,670.329,647.787Z" transform="translate(-541.503 -552.774)" fill="#3f3d56"/>
    <g id="Group_204" data-name="Group 204" transform="translate(80.927 89.361)">
      <path id="Path_2714" data-name="Path 2714" d="M506.488,638.084H489.4v.551h2.664v5.235h.551v-5.235H503v5.235h.551v-5.235h2.94Z" transform="translate(-489.404 -635.057)" fill="#3f3d56"/>
      <rect id="Rectangle_400" data-name="Rectangle 400" width="17.084" height="0.551" transform="translate(0.034 1.378)" fill="#3f3d56"/>
      <rect id="Rectangle_401" data-name="Rectangle 401" width="17.084" height="0.551" transform="translate(0.034)" fill="#3f3d56"/>
    </g>
    <ellipse id="Ellipse_525" data-name="Ellipse 525" cx="6.67" cy="13.609" rx="6.67" ry="13.609" transform="translate(193.48 62.751)" fill="#e6e6e6"/>
    <path id="Path_2716" data-name="Path 2716" d="M1005.768,557.179c2.668-16.006.027-31.953,0-32.113l-.266.046c.027.159,2.66,16.063,0,32.023Z" transform="translate(-806.362 -458.565)" fill="#3f3d56"/>
    <rect id="Rectangle_406" data-name="Rectangle 406" width="0.27" height="6.842" transform="translate(194.088 73.781) rotate(-61.847)" fill="#3f3d56"/>
    <rect id="Rectangle_407" data-name="Rectangle 407" width="6.842" height="0.27" transform="translate(200.455 78.392) rotate(-28.153)" fill="#3f3d56"/>
    <g id="Group_202" data-name="Group 202" transform="translate(182.744 74.419)">
      <path id="Path_2721" data-name="Path 2721" d="M973.387,639.268a.405.405,0,0,1-.384-.02c-.029-.018-.053.03-.023.048a.455.455,0,0,0,.425.023.028.028,0,0,0,.017-.034.027.027,0,0,0-.033-.018Z" transform="translate(-964.022 -621.01)" fill="#fff"/>
      <path id="Path_2749" data-name="Path 2749" d="M934.856,595.249a.622.622,0,0,0,.171-.938l.723-5.617-1.351.057-.285,5.5a.625.625,0,0,0,.743.995Z" transform="translate(-933.918 -582.038)" fill="#ffb6b6"/>
      <path id="Path_2750" data-name="Path 2750" d="M960.214,588.691l.174,2.872-1.172,3.1-.56-.828.534-3.011-.148-1.927Z" transform="translate(-952.989 -582.036)" fill="#ffb6b6"/>
      <path id="Path_2751" data-name="Path 2751" d="M951.9,627.094l.144,7.382-.631.1-1.364-7.556Z" transform="translate(-946.356 -611.585)" fill="#ffb6b6"/>
      <path id="Path_2752" data-name="Path 2752" d="M940.265,627.7l.988,7.317h.639l.192-7.676Z" transform="translate(-938.811 -611.834)" fill="#ffb6b6"/>
      <circle id="Ellipse_528" data-name="Ellipse 528" cx="1.313" cy="1.313" r="1.313" transform="translate(1.999 0.275)" fill="#ffb6b6"/>
      <path id="Path_2754" data-name="Path 2754" d="M942.051,607.214l.551,1.288-.551,1.734v1.794l-2.11.013-.046-2.207-.284,2.207h-2.149l-.4-4.423.571-1.047Z" transform="translate(-936.344 -595.823)" fill="#2f2e41"/>
      <path id="Path_2755" data-name="Path 2755" d="M939.231,574.179l-.155.288a4.308,4.308,0,0,0-2.016,1l.908,1.855-.841,5.37,4.959-.331.176-4.135.746-2.892s-1.293-.887-1.852-.794l-.2-.359Z" transform="translate(-936.341 -570.848)" fill="#ff435e"/>
      <path id="Path_2756" data-name="Path 2756" d="M937.168,579.986l-1.274-.193s-.349,2.047-.346,2.514l1.538.245Z" transform="translate(-935.174 -575.176)" fill="#ff435e"/>
      <path id="Path_2757" data-name="Path 2757" d="M959.185,579.342l.609-.131s.235.745.623,2.5l-1.583.552Z" transform="translate(-953.127 -574.728)" fill="#ff435e"/>
      <path id="Path_2758" data-name="Path 2758" d="M940.188,659.844h-2.294v-.029a.893.893,0,0,1,.893-.893h1.4Z" transform="translate(-936.984 -636.18)" fill="#2f2e41"/>
      <path id="Path_2759" data-name="Path 2759" d="M952.295,658.351l-2.266.351,0-.029a.893.893,0,0,1,.746-1.018h0l1.384-.214Z" transform="translate(-946.327 -635.039)" fill="#2f2e41"/>
      <path id="Path_2800" data-name="Path 2800" d="M944.938,561.758a1.892,1.892,0,0,0-.309-.08.7.7,0,0,1-.537-.791.361.361,0,0,0,.019-.13c-.014-.1-.128-.16-.238-.183a2.626,2.626,0,0,1-.331-.055.447.447,0,0,1-.292-.351.651.651,0,0,1,.111-.437l.04.1a.371.371,0,0,0,.129-.169.262.262,0,0,1,.2.143c.063.033.073-.1.143-.121a.14.14,0,0,1,.088.019.8.8,0,0,0,.458-.023,1.967,1.967,0,0,1,.8,0,1.011,1.011,0,0,1,.472.212.967.967,0,0,1,.22.331,1.7,1.7,0,0,1,.178.928,1.242,1.242,0,0,1-.354.7c-.1.1-.431.458-.612.4C944.9,562.164,945.206,561.882,944.938,561.758Z" transform="translate(-941.111 -559.636)" fill="#2f2e41"/>
    </g>
    <g id="Group_203" data-name="Group 203" transform="translate(167.049 75.279)">
      <path id="Path_2809" data-name="Path 2809" d="M875.19,593.157a.447.447,0,0,0,.107-.678l.582-5.835-.971.064-.269,5.746a.45.45,0,0,0,.552.7Z" transform="translate(-872.419 -581.317)" fill="#feb8b8"/>
      <path id="Path_2810" data-name="Path 2810" d="M874.541,581.68l.255,1.935-.035,1.186,1.068.1.214-.986.118-2.611a.779.779,0,0,0-.688-.809h0a.779.779,0,0,0-.862.672Z" transform="translate(-872.446 -576.57)" fill="#2f2e41"/>
      <path id="Path_2811" data-name="Path 2811" d="M892.393,651.612h.647l.308-2.5h-.956Z" transform="translate(-886.209 -629.477)" fill="#feb8b8"/>
      <path id="Path_2812" data-name="Path 2812" d="M891.676,659.939h2.089v-.026a.813.813,0,0,0-.813-.813h-1.276Z" transform="translate(-885.656 -637.177)" fill="#2f2e41"/>
      <path id="Path_2813" data-name="Path 2813" d="M869.042,651.612h.648l.308-2.5h-.956Z" transform="translate(-868.207 -629.477)" fill="#feb8b8"/>
      <path id="Path_2814" data-name="Path 2814" d="M868.321,659.939h2.089v-.026a.813.813,0,0,0-.813-.813h-1.276Z" transform="translate(-867.651 -637.177)" fill="#2f2e41"/>
      <circle id="Ellipse_532" data-name="Ellipse 532" cx="1.405" cy="1.405" r="1.405" transform="translate(1.95 0.193)" fill="#feb8b8"/>
      <path id="Path_2815" data-name="Path 2815" d="M868.932,578.985l-.975.111h0a2.594,2.594,0,0,0-.332,2.342l.735,2.128a10.423,10.423,0,0,0-1.021,3.947c0,1.9-1.944,8.683-1.944,8.683l2.737.285,1.194-7.226,1.646,7.2,1.878-.306-1.035-9.437-.684-3.106-.029-1.512a2.116,2.116,0,0,0-.437-1.864l-.888-1.237Z" transform="translate(-865.396 -575.412)" fill="#2f2e41"/>
      <path id="Path_2816" data-name="Path 2816" d="M880.239,564.484h-2.065v-.9c.453-.18.9-.333,1.164,0a.9.9,0,0,1,.9.9Z" transform="translate(-875.247 -563.388)" fill="#2f2e41"/>
      <path id="Path_2817" data-name="Path 2817" d="M872.368,563.553c-1.234,0-1.579,1.546-1.579,2.419,0,.486.22.66.566.719l.122-.651.286.679c.1,0,.2,0,.3,0l.1-.2.216.2c.866,0,1.566.128,1.566-.74S873.643,563.553,872.368,563.553Z" transform="translate(-869.553 -563.515)" fill="#2f2e41"/>
      <path id="Path_2818" data-name="Path 2818" d="M885.646,589.837l.052-2.265.138-1.006.342,1Z" transform="translate(-881.007 -581.257)" opacity="0.2" style="mix-blend-mode: normal;isolation: isolate"/>
      <path id="Path_3389" data-name="Path 3389" d="M871.161,582.916h0a1.236,1.236,0,0,1-1.233-1.235v-2.319a1.237,1.237,0,0,1,1.233-1.234,1.668,1.668,0,0,1,1.666,1.665v1.456A1.667,1.667,0,0,1,871.161,582.916Z" transform="translate(-868.889 -574.753)" fill="#ff435e"/>
      <path id="Path_2822" data-name="Path 2822" d="M880.935,581.124a2.157,2.157,0,0,0,.462-1.381c0-1.006-.6-1.823-1.335-1.823a1.227,1.227,0,0,0-1.021.648l.111.069a1.1,1.1,0,0,1,.911-.586c.664,0,1.2.759,1.2,1.693a2.026,2.026,0,0,1-.431,1.3Z" transform="translate(-875.915 -574.591)" fill="#ff435e"/>
      <path id="Path_2823" data-name="Path 2823" d="M881.949,591.984a.49.49,0,0,0,.076-.748l.289-6.419-1.058.128.047,6.3a.493.493,0,0,0,.646.736Z" transform="translate(-877.562 -579.909)" fill="#feb8b8"/>
      <path id="Path_2824" data-name="Path 2824" d="M879.571,579.576l.394,2.1.032,1.3,1.174.044.175-1.092-.026-2.863a.854.854,0,0,0-.8-.844h0a.854.854,0,0,0-.9.786Z" transform="translate(-876.324 -574.822)" fill="#2f2e41"/>
    </g>
    <g id="Group_205" data-name="Group 205" transform="translate(143.483 89.361)">
      <path id="Path_2714-2" data-name="Path 2714-2" d="M779.594,638.084H762.51v.551h2.664v5.235h.551v-5.235H776.1v5.235h.551v-5.235h2.94Z" transform="translate(-762.51 -635.057)" fill="#3f3d56"/>
      <rect id="Rectangle_400-2" data-name="Rectangle 400-2" width="17.084" height="0.551" transform="translate(0.034 1.378)" fill="#3f3d56"/>
      <rect id="Rectangle_401-2" data-name="Rectangle 401-2" width="17.084" height="0.551" transform="translate(0.034)" fill="#3f3d56"/>
    </g>
    <circle id="Ellipse_533" data-name="Ellipse 533" cx="1.218" cy="1.218" r="1.218" transform="translate(94.103 83.813)" fill="#a0616a"/>
    <g id="Group_206" data-name="Group 206" transform="translate(92.08 83.324)">
      <path id="Path_2833" data-name="Path 2833" d="M562.78,652.029h.623l.3-2.4h-.921Z" transform="translate(-557.125 -637.917)" fill="#a0616a"/>
      <path id="Path_2834" data-name="Path 2834" d="M562.086,659.236h1.228a.783.783,0,0,1,.783.782v.025h-2.011Z" transform="translate(-556.59 -645.327)" fill="#2f2e41"/>
      <path id="Path_2835" data-name="Path 2835" d="M544.992,647.987l-.505.366-1.649-1.775.746-.539Z" transform="translate(-541.751 -635.154)" fill="#a0616a"/>
      <path id="Path_2836" data-name="Path 2836" d="M548.318,654.076l-1.629,1.179-.015-.021a.783.783,0,0,1,.175-1.093h0l.995-.72Z" transform="translate(-544.594 -640.845)" fill="#2f2e41"/>
      <path id="Path_2837" data-name="Path 2837" d="M548.991,613.01a1.191,1.191,0,0,0-1.362,0l-.489,4.083h1.47l.218-1.306.49-1.96Z" transform="translate(-545.067 -609.525)" fill="#ff435e"/>
      <path id="Path_2838" data-name="Path 2838" d="M543.489,632.687l-2.639-.862-1.258,1,1.336,2.043-.7.916-.02-.023c-.087-.1-2.124-2.426-2.118-3.086a4.963,4.963,0,0,1,.225-1.319l.662-.939.939-.276,3.109.435h.005l1.256.765a.987.987,0,0,1,.447.729c.054.485.162,4.373.164,4.412v.025h-1.355Z" transform="translate(-538.092 -622.894)" fill="#2f2e41"/>
      <path id="Path_2839" data-name="Path 2839" d="M541.825,618.546a4.147,4.147,0,0,1-1.141-1.134c-.189.1-1.565.838-1.953.649a.719.719,0,0,0-.357.412l-.012.057-.033-.048c-.006-.009-.6-.9.169-1.45a2.417,2.417,0,0,0,.914-1.07l-.382-2.022.01-.009a3.272,3.272,0,0,1,1.455-.8l.419-.074.018,1.6V616.7c.339-.043.874-3.612.874-3.612l.28.1c.072.014.885.176,1.1.5l.007.01-.739,2-.216.326v.417l1.264,1.1-.018.019c-.043.046-.975,1.014-1.517,1.014A.353.353,0,0,1,541.825,618.546Z" transform="translate(-538.101 -609.73)" fill="#3f3d56"/>
      <path id="Path_2840" data-name="Path 2840" d="M550.89,634.441a.477.477,0,0,1,.615-.4l.7-.837.612.3-1,1.168a.479.479,0,0,1-.923-.236Z" transform="translate(-547.955 -625.262)" fill="#a0616a"/>
      <path id="Path_2841" data-name="Path 2841" d="M553.058,619.851l1.1-1.479-.271-1.466.44-1.651.011,0a.568.568,0,0,1,.38-.026.256.256,0,0,1,.143.149c.109.272.372,3.046.383,3.169a3.133,3.133,0,0,1-.166.771c-.109.218-1.1,1.32-1.147,1.367l-.017.019Z" transform="translate(-549.63 -611.381)" fill="#3f3d56"/>
      <path id="Path_2842" data-name="Path 2842" d="M547.517,599.908a1.443,1.443,0,0,1-1.656.229,1.763,1.763,0,0,1-.314,1.15c.072-.289-.231-.347-.407-.454-.069-.086-.011-.214-.039-.321-.317-.372-.527-.652-.12-1.088.238-.319.524-.717.978-.633a.985.985,0,0,1,1.349-.017,2.869,2.869,0,0,1,.489.46,1.947,1.947,0,0,1-.254.638" transform="translate(-543.23 -598.514)" fill="#2f2e41"/>
      <path id="Path_2845" data-name="Path 2845" d="M546.267,636a.477.477,0,0,0-.615-.4l-.7-.837-.612.3,1,1.168a.479.479,0,0,0,.923-.236Z" transform="translate(-542.91 -626.46)" fill="#a0616a"/>
      <path id="Path_2846" data-name="Path 2846" d="M540.7,621.686a11.494,11.494,0,0,1-1.7-1.479,4.256,4.256,0,0,1-.121-1.346,15.934,15.934,0,0,1,.475-2.077.6.6,0,0,1,.777-.348l.018.007.017.007-.246,2.867,1.341,1.778-.546.6Z" transform="translate(-538.7 -612.3)" fill="#3f3d56"/>
    </g>
    <path id="Path_2700" data-name="Path 2700" d="M508.34,352.44l-2.054-4.766-4.123.073-2.5,4.751.05.063h-.018v9.882h8.641v-9.882Z" transform="translate(-416.384 -321.805)" fill="#f2f2f2"/>
    <path id="Path_2700-2" data-name="Path 2700" d="M794.31,408.832l-1.66-3.483-3.332.054-2.021,3.473.041.046h-.015v7.223h6.983v-7.223Z" transform="translate(-638.136 -366.269)" fill="#f2f2f2"/>
    <rect id="Rectangle_2546" data-name="Rectangle 2546" width="48.438" height="0.458" transform="translate(27.548 23.788)" fill="#fff"/>
    <rect id="Rectangle_2547" data-name="Rectangle 2547" width="48.438" height="0.458" transform="translate(22.738 28.598)" fill="#fff"/>
    <rect id="Rectangle_2548" data-name="Rectangle 2548" width="7.895" height="0.458" transform="translate(158.087 29.466)" fill="#fff"/>
    <rect id="Rectangle_2549" data-name="Rectangle 2549" width="7.895" height="0.458" transform="translate(158.087 34.276)" fill="#fff"/>
    <rect id="Rectangle_2550" data-name="Rectangle 2550" width="9.581" height="0.458" transform="translate(93.254 14.807)" fill="#fff"/>
    <rect id="Rectangle_2551" data-name="Rectangle 2551" width="9.581" height="0.458" transform="translate(93.254 19.617)" fill="#fff"/>
  </g>
</svg>
